<?xml version="1.0" standalone="no"?>
<!DOCTYPE svg PUBLIC "-//W3C//DTD SVG 20010904//EN"
 "http://www.w3.org/TR/2001/REC-SVG-20010904/DTD/svg10.dtd">
<svg version="1.0" xmlns="http://www.w3.org/2000/svg"
 width="474.000000pt" height="474.000000pt" viewBox="0 0 474.000000 474.000000"
 preserveAspectRatio="xMidYMid meet">

<g transform="translate(0.000000,474.000000) scale(0.100000,-0.100000)"
fill="#898989" stroke="none">
<path d="M2097 4675 c-1200 -146 -2085 -1175 -2044 -2380 3 -93 13 -215 21
-270 130 -827 672 -1506 1448 -1816 416 -166 908 -203 1358 -103 670 149 1255
606 1565 1224 103 206 172 419 217 670 30 169 32 535 5 710 -132 830 -674
1514 -1442 1818 -348 138 -760 191 -1128 147z m638 -105 c386 -68 711 -212
1012 -447 78 -60 241 -215 308 -293 185 -212 343 -490 430 -752 191 -582 141
-1203 -140 -1743 -168 -324 -433 -617 -746 -825 -344 -228 -730 -352 -1149
-367 -964 -35 -1835 549 -2174 1458 -44 120 -79 253 -108 412 -29 161 -32 525
-5 685 70 430 243 804 521 1129 194 228 422 403 704 543 247 123 462 183 792
224 19 2 125 3 235 1 148 -3 231 -9 320 -25z"/>
<path d="M2080 4524 c-714 -97 -1336 -543 -1655 -1189 -166 -335 -233 -644
-222 -1030 6 -217 24 -339 76 -527 201 -714 771 -1289 1479 -1493 195 -56 325
-76 542 -82 243 -7 400 9 608 63 761 194 1367 794 1562 1547 57 218 64 282 65
547 0 275 -11 370 -71 587 -233 853 -969 1482 -1849 1583 -125 14 -409 11
-535 -6z m209 -236 c0 -31 -1 -32 -11 -10 -20 40 -102 42 -150 3 -19 -16 -23
-28 -22 -69 2 -64 25 -105 70 -127 31 -15 43 -15 75 -6 22 7 39 18 39 26 0 8
5 15 10 15 12 0 13 -20 1 -39 -10 -15 -97 -27 -134 -17 -13 3 -33 13 -44 23
-12 10 -29 23 -38 28 -26 16 -33 107 -11 140 30 46 74 65 149 65 l67 0 -1 -32z
m256 -12 c42 -18 67 -55 67 -100 0 -86 -101 -143 -182 -101 -146 75 -38 265
115 201z m248 -131 c27 -42 51 -75 53 -72 3 3 12 33 20 68 12 50 12 64 2 71
-9 5 -7 8 7 8 11 0 27 -5 35 -10 8 -5 10 -10 4 -10 -5 0 -21 -43 -34 -95 -21
-88 -40 -130 -40 -89 0 10 -3 14 -7 11 -3 -4 -22 21 -42 55 -19 35 -41 69 -48
76 -7 7 -13 20 -13 28 0 8 -4 14 -9 14 -4 0 -14 -34 -21 -76 -11 -64 -11 -77
1 -86 10 -7 9 -8 -6 -3 -11 4 -26 8 -33 8 -7 0 -11 6 -8 14 3 7 13 42 21 76 9
34 21 77 27 96 11 34 11 34 27 14 9 -11 38 -55 64 -98z m-934 53 c0 -13 -3
-17 -6 -10 -6 14 -14 15 -47 3 -23 -9 -24 -12 -13 -46 11 -37 18 -39 71 -19
10 4 16 1 16 -7 0 -8 -13 -15 -31 -16 -18 -1 -34 -4 -36 -7 -2 -2 1 -22 8 -45
10 -33 17 -41 36 -41 12 0 32 9 43 20 19 19 20 19 20 1 0 -20 -44 -41 -84 -41
-12 0 -28 -6 -35 -12 -8 -7 -11 -8 -8 -2 11 19 -45 193 -62 197 -15 3 90 45
117 46 6 1 12 -9 11 -21z m1236 -50 c15 -7 25 -19 25 -32 l0 -20 -15 21 c-18
25 -61 35 -76 17 -9 -11 -4 -25 21 -63 38 -60 36 -88 -7 -113 -51 -30 -122 -1
-107 44 l8 23 6 -25 c7 -31 52 -49 74 -30 24 19 19 53 -14 95 -25 31 -28 40
-18 59 20 38 54 46 103 24z m-1464 -39 c15 -15 19 -28 14 -47 -4 -15 -7 -31
-8 -35 -1 -5 30 -22 68 -38 64 -26 67 -28 35 -28 -19 -1 -55 8 -79 19 -41 19
-81 19 -81 1 0 -5 11 -25 25 -45 l24 -36 -24 0 c-14 0 -25 -6 -25 -12 -1 -7
-9 10 -19 37 -46 122 -57 145 -68 145 -28 0 -10 16 40 37 65 28 72 28 98 2z
m1625 -49 c-16 -5 -44 -47 -72 -109 -19 -41 -8 -75 30 -93 37 -16 65 7 108 89
34 68 36 70 59 57 17 -9 19 -13 8 -14 -10 0 -28 -22 -43 -55 -49 -99 -120
-125 -177 -64 -37 40 -37 65 6 148 19 38 31 72 27 76 -4 4 10 -1 31 -11 27
-13 34 -20 23 -24z m-1736 -190 l25 -7 -28 -8 c-22 -6 -36 -2 -57 14 l-29 21
-35 -23 c-35 -22 -44 -48 -26 -77 6 -10 4 -20 -7 -32 -18 -20 -38 -24 -26 -6
9 15 6 45 -12 153 -7 44 -11 83 -9 87 3 4 44 -20 92 -54 48 -34 98 -64 112
-68z m1987 31 c-22 -8 -107 -120 -107 -141 0 -24 47 -60 68 -53 14 5 15 3 5
-7 -16 -18 -66 3 -83 35 -7 13 -16 24 -19 23 -3 0 -12 0 -20 1 -12 1 -12 3 1
14 37 30 117 148 111 164 -5 13 1 12 27 -7 26 -19 30 -25 17 -29z m-2244 -136
c14 -33 24 -61 22 -63 -1 -1 -38 15 -81 37 -44 21 -80 38 -81 37 -1 -1 12 -39
28 -85 16 -46 27 -86 24 -90 -3 -3 -9 0 -13 6 -15 23 -165 104 -185 99 -18 -4
-17 -3 4 20 12 13 25 20 28 15 9 -13 122 -83 127 -79 2 3 -7 38 -21 78 -14 40
-23 75 -22 77 2 2 36 -13 76 -32 39 -19 73 -35 76 -35 2 0 -8 29 -23 65 -15
36 -33 65 -41 65 -11 0 -10 5 4 20 18 20 18 20 35 -27 10 -27 29 -75 43 -108z
m1248 134 c186 -18 348 -62 505 -134 217 -100 433 -272 566 -450 33 -44 66
-88 74 -98 30 -37 112 -195 147 -282 82 -208 102 -319 102 -565 0 -166 -4
-211 -23 -304 -42 -194 -112 -370 -207 -517 -234 -363 -578 -600 -999 -691
-138 -30 -455 -32 -591 -5 -190 39 -368 109 -530 209 -78 49 -96 62 -203 156
-29 26 -56 49 -60 52 -23 17 -154 175 -189 227 -419 620 -341 1440 185 1961
152 150 340 272 542 352 76 30 293 81 381 89 124 12 185 12 300 0z m1175 -126
c45 -41 70 -71 64 -77 -5 -5 -19 3 -35 23 -15 17 -31 31 -36 31 -11 0 -91 -86
-103 -111 -10 -20 -42 -25 -66 -9 -13 8 -13 10 0 10 17 0 140 119 140 135 0
13 -36 45 -51 45 -5 0 -7 5 -4 10 3 6 8 10 11 10 3 0 39 -30 80 -67z m-2751
-123 c3 -5 0 -10 -7 -10 -7 0 -21 -11 -30 -25 l-18 -24 76 -61 c61 -48 79 -58
90 -49 24 20 15 3 -16 -29 -25 -27 -30 -29 -30 -13 0 25 -125 125 -145 117 -8
-3 -23 -19 -34 -36 -11 -20 -21 -27 -26 -21 -6 10 18 43 99 138 21 25 32 28
41 13z m2880 -46 c-14 -7 -52 -36 -85 -65 -53 -46 -58 -54 -48 -73 6 -11 6
-16 2 -11 -41 45 -57 67 -46 61 8 -5 39 16 85 56 40 35 74 67 76 71 1 5 12 1
22 -9 18 -17 18 -17 -6 -30z m-255 -9 c0 -8 -2 -15 -4 -15 -2 0 -6 7 -10 15
-3 8 -1 15 4 15 6 0 10 -7 10 -15z m370 -82 c0 -5 -11 -56 -24 -115 -12 -60
-19 -108 -14 -108 23 0 120 79 112 91 -13 22 7 6 25 -20 20 -28 20 -29 2 -24
-11 3 -44 -11 -83 -36 -36 -23 -70 -41 -76 -41 -5 0 -13 -7 -16 -16 -4 -9 -9
-15 -12 -12 -7 8 24 196 37 221 9 16 9 19 -4 14 -26 -10 -117 -78 -117 -88 0
-5 -9 -1 -20 8 -23 20 -26 35 -6 27 13 -5 131 61 166 93 16 14 30 17 30 6z
m-3155 -63 c3 -5 0 -10 -8 -10 -7 0 -20 -12 -27 -26 -13 -24 -12 -27 10 -45
33 -25 38 -24 58 11 20 35 25 36 43 13 11 -13 11 -15 1 -9 -14 8 -41 -19 -42
-41 0 -16 68 -56 85 -49 18 7 19 2 2 -16 -7 -7 -18 -24 -24 -38 l-12 -25 0 27
c-1 22 -14 34 -75 72 -51 33 -79 44 -92 39 -16 -6 -16 -3 4 28 13 19 28 44 34
57 12 23 32 29 43 12z m-24 -223 c62 -41 75 -100 36 -158 -34 -50 -70 -65
-127 -50 -25 6 -55 23 -67 37 -43 48 -23 136 40 174 42 26 76 25 118 -3z
m3345 -15 c22 -17 45 -55 63 -104 9 -23 7 -29 -9 -38 -28 -15 -32 -12 -20 11
14 25 0 72 -32 106 -39 42 -129 23 -148 -31 -14 -40 -13 -89 4 -111 12 -17 17
-17 45 -5 17 7 35 19 39 27 6 10 13 4 25 -22 17 -35 17 -35 -2 -25 -15 8 -29
6 -56 -7 -36 -17 -37 -17 -55 7 -11 14 -24 46 -30 72 -14 58 -1 92 50 126 39
26 85 24 126 -6z m-3596 -232 c12 -8 11 -10 -7 -10 -16 0 -25 -8 -29 -25 -14
-58 28 -73 85 -31 46 34 86 42 117 21 39 -25 48 -55 30 -98 -13 -32 -19 -37
-48 -37 l-33 1 32 14 c37 16 51 52 33 84 -15 29 -56 27 -101 -3 -52 -35 -84
-41 -114 -22 -27 18 -31 37 -14 85 11 32 23 38 49 21z m3733 -129 c46 -18 79
-74 84 -144 4 -50 2 -64 -8 -64 -8 0 -23 -4 -33 -8 -17 -7 -17 -5 4 23 51 68
-3 172 -90 172 -21 0 -50 -5 -63 -11 -45 -20 -76 -103 -57 -153 10 -26 13 -27
53 -21 23 4 48 14 55 23 11 14 12 14 12 -4 0 -10 3 -30 7 -44 6 -23 5 -24 -10
-8 -14 13 -23 14 -56 6 -54 -14 -68 -7 -81 44 -14 51 -8 109 15 144 29 45 110
67 168 45z m-3588 -218 c-4 -21 -13 -41 -20 -45 -10 -6 -10 -16 3 -51 26 -73
5 -117 -61 -124 -40 -5 -49 -2 -72 21 -21 21 -33 26 -54 21 -42 -9 -75 23 -74
70 1 47 12 58 44 46 24 -10 24 -10 2 -10 -27 -1 -42 -43 -23 -66 25 -31 65
-17 143 49 45 37 47 41 30 54 -10 7 -28 11 -40 9 -14 -3 -23 1 -23 9 0 23 16
24 56 3 l39 -20 22 28 c13 15 23 31 23 36 0 4 3 7 6 7 3 0 3 -17 -1 -37z
m3656 -220 c-14 -31 -57 -40 -93 -19 -24 15 -32 16 -46 4 -30 -24 -52 -48 -52
-56 0 -5 -7 -17 -15 -28 -13 -18 -14 -17 -11 16 3 25 15 45 43 70 22 19 43 44
48 55 l8 20 5 -20 c2 -11 9 -26 14 -32 13 -16 60 -17 76 -1 14 14 16 54 3 63
-5 3 -48 2 -96 -1 -75 -6 -88 -10 -95 -28 -7 -17 -9 -13 -9 19 l-1 40 96 -3
c62 -2 101 1 108 8 16 16 31 -77 17 -107z m-61 -138 c53 -27 73 -95 50 -162
-14 -37 -46 -53 -111 -53 -42 0 -55 5 -80 29 -23 23 -29 38 -29 71 0 101 86
159 170 115z m-3611 -71 c39 -50 25 -104 -27 -104 -13 0 -11 4 6 16 26 18 29
56 6 78 -29 30 -58 17 -69 -32 -7 -34 -45 -62 -84 -62 -27 0 -51 37 -51 77 0
27 4 33 22 33 17 0 19 -3 10 -12 -14 -14 -15 -47 -3 -67 14 -22 47 -3 66 40
10 22 26 44 34 49 31 18 69 11 90 -16z m31 -182 c0 -15 -4 -21 -11 -16 -6 3
-38 -6 -70 -22 -67 -32 -65 -36 34 -54 37 -7 70 -16 73 -21 3 -5 1 -9 -4 -9
-13 0 -112 -82 -112 -92 0 -11 111 1 124 13 15 14 26 11 26 -8 0 -12 -8 -19
-22 -19 -134 -9 -176 -13 -190 -19 -35 -14 -15 11 55 70 l71 60 -49 13 c-28 7
-58 17 -68 23 -10 6 -32 7 -48 4 -59 -13 -26 11 68 50 63 26 98 46 101 58 6
24 22 2 22 -31z m3517 -58 c30 -9 63 -14 74 -11 10 3 19 4 19 4 0 -1 -7 -20
-15 -42 -9 -26 -14 -32 -15 -19 0 18 -11 25 -63 39 -83 22 -118 18 -135 -18
-23 -47 -9 -73 51 -96 77 -28 127 -36 127 -20 0 7 2 10 5 7 3 -3 1 -18 -5 -34
-7 -17 -14 -24 -18 -17 -4 6 -40 21 -80 32 -108 33 -129 61 -98 135 24 58 59
67 153 40z m-108 -263 c41 -18 83 -30 93 -28 23 6 23 6 -8 -59 -23 -49 -29
-54 -57 -54 -18 0 -37 4 -43 8 -20 13 -32 47 -23 67 7 19 8 19 8 -2 1 -28 39
-54 67 -47 22 6 48 40 40 53 -3 4 -27 16 -53 26 -26 10 -63 24 -82 33 -26 12
-37 13 -52 4 -18 -12 -18 -11 -2 23 13 27 19 31 27 21 6 -7 44 -27 85 -45z
m-3292 -16 c27 -69 27 -71 9 -56 -10 8 -27 5 -72 -15 -32 -14 -72 -31 -87 -37
-19 -8 -26 -18 -23 -29 8 -33 -3 -18 -24 30 -11 26 -25 55 -30 65 -6 9 -8 17
-6 17 2 0 12 3 20 6 11 4 15 2 11 -8 -3 -8 -1 -27 4 -41 10 -25 13 -26 38 -15
43 18 46 24 30 57 -15 30 -13 41 7 41 6 0 11 -14 12 -30 1 -17 4 -33 7 -37 8
-8 87 27 87 38 0 21 -25 59 -39 59 -14 0 -14 2 -1 10 24 16 33 7 57 -55z
m3121 -64 c9 -5 25 -12 35 -15 27 -9 20 -27 -9 -22 -15 3 -27 6 -28 8 -1 2 -8
11 -15 21 -15 19 -9 22 17 8z m-3023 -132 c15 -29 15 -30 -2 -21 -14 8 -31 2
-73 -24 -30 -18 -65 -38 -77 -44 -31 -13 -29 -22 11 -64 27 -29 30 -36 15 -36
-25 0 -122 160 -107 178 9 10 14 5 24 -23 7 -20 14 -39 17 -41 6 -6 160 86
165 98 6 13 11 9 27 -23z m2939 -53 c-6 -16 163 -136 190 -136 10 0 13 -6 9
-16 -8 -22 -27 -15 -126 51 -78 51 -91 56 -112 47 l-24 -11 27 39 c27 39 46
53 36 26z m-2851 -85 c33 -13 69 -71 55 -88 -16 -20 -30 -15 -23 7 13 41 -39
86 -70 60 -11 -9 -13 -25 -9 -65 6 -48 4 -53 -21 -73 -44 -35 -60 -31 -107 26
-15 19 -15 21 4 39 20 18 21 18 13 -5 -5 -16 -1 -29 11 -43 36 -40 66 -10 57
58 -5 35 -2 45 20 67 29 29 35 30 70 17z m2853 -116 l74 -70 -117 -3 c-65 -1
-121 -6 -125 -10 -13 -13 104 -103 126 -98 17 4 16 2 -5 -18 -14 -13 -26 -19
-28 -12 -2 6 -24 29 -49 51 -24 22 -57 52 -73 66 -16 14 -29 28 -29 31 0 3 54
9 121 13 l120 7 -53 49 c-38 35 -59 46 -73 42 -18 -5 -17 -3 5 21 16 18 26 23
28 14 2 -7 37 -44 78 -83z m165 2 c-10 -9 -11 -8 -5 6 3 10 9 15 12 12 3 -3 0
-11 -7 -18z m-2858 -85 c-47 -10 -73 -63 -85 -174 -3 -26 -3 -26 -25 -8 -21
17 -22 20 -9 52 7 18 16 45 19 59 l7 26 -50 -13 c-28 -7 -54 -15 -58 -18 -4
-2 -16 2 -27 10 -18 13 -18 14 8 14 62 0 126 22 157 53 18 19 28 37 25 47 -4
8 8 1 25 -15 27 -26 29 -30 13 -33z m2453 -88 c91 -43 81 -158 -19 -214 -37
-21 -39 -21 -58 -4 -22 20 -17 33 5 15 18 -15 67 7 90 41 42 59 -7 148 -80
148 -46 0 -101 -39 -106 -75 -3 -24 -4 -25 -15 -7 -10 17 -7 24 20 52 33 34
79 59 110 60 11 0 34 -7 53 -16z m-2287 -30 c36 -30 37 -34 11 -65 l-19 -24 6
37 c5 33 3 38 -26 52 -22 12 -36 14 -49 7 -17 -9 -17 -17 -9 -87 10 -77 10
-78 -17 -101 -36 -30 -69 -29 -107 5 l-31 27 22 20 23 20 -7 -21 c-13 -43 52
-75 73 -36 6 12 6 33 1 58 -14 59 -12 79 11 108 28 35 76 35 118 0z m540 -385
c39 -14 42 -45 4 -60 -33 -12 -62 -4 -45 13 8 8 8 15 1 24 -6 7 -8 18 -4 24 8
12 5 12 44 -1z m1079 -1 c20 -20 14 -56 -10 -64 -13 -4 -24 -2 -26 5 -2 6 -10
11 -18 11 -8 0 -14 9 -14 20 0 14 7 20 21 20 11 0 17 5 14 10 -9 14 19 12 33
-2z m-794 -44 c25 -24 19 -57 -20 -108 -28 -37 -32 -47 -20 -51 9 -3 23 -7 31
-10 32 -10 13 -25 -32 -25 -76 0 -77 8 -17 75 65 72 68 98 12 103 -36 3 -46
11 -31 25 12 13 62 7 77 -9z m200 -38 c10 -37 6 -110 -7 -136 -18 -36 -61 -49
-86 -26 -44 40 -32 167 18 192 30 15 67 1 75 -30z m175 15 c10 -10 22 -37 26
-60 13 -80 -17 -136 -71 -129 -36 4 -54 37 -54 101 0 92 50 137 99 88z m176
-43 c3 -35 8 -75 11 -90 3 -16 1 -28 -4 -28 -10 0 -22 55 -22 103 0 24 -3 27
-25 21 -18 -4 -25 -2 -25 9 0 13 35 45 52 46 3 1 9 -27 13 -61z"/>
<path d="M2427 4252 c-23 -25 -25 -104 -3 -137 40 -61 117 -52 137 15 15 49 4
105 -24 125 -30 21 -90 19 -110 -3z"/>
<path d="M1553 4100 c-22 -9 -22 -9 -4 -50 23 -52 25 -54 50 -40 25 13 28 61
5 84 -17 18 -20 18 -51 6z"/>
<path d="M1344 3920 c3 -18 6 -39 6 -46 0 -19 10 -17 40 6 25 19 25 19 5 35
-11 8 -29 20 -39 26 -17 10 -18 9 -12 -21z"/>
<path d="M2210 3830 c-103 -13 -205 -36 -313 -72 -98 -32 -247 -104 -247 -119
0 -5 8 -5 18 1 27 15 183 57 265 71 65 11 78 10 119 -5 49 -19 97 -61 84 -73
-4 -4 -10 -2 -14 4 -4 7 -25 20 -47 29 -64 26 -180 4 -168 -33 2 -6 14 -10 26
-7 29 5 56 -48 37 -71 -10 -12 -10 -15 1 -15 8 0 -2 -10 -21 -23 -38 -24 -55
-38 -134 -106 -99 -87 -145 -163 -146 -242 0 -32 6 -53 20 -69 11 -13 20 -28
20 -34 0 -6 8 -20 16 -31 15 -19 16 -18 10 17 -4 21 -2 39 4 43 5 3 10 31 10
61 0 30 5 54 10 54 6 0 8 -11 4 -25 -4 -15 -2 -25 5 -25 6 0 11 4 11 10 0 5
20 29 45 52 69 66 95 88 95 81 0 -3 16 6 35 21 38 29 124 70 141 67 7 -1 14 6
18 14 3 9 10 14 15 10 5 -3 12 -1 16 5 3 5 17 10 29 10 14 0 30 10 40 25 16
24 16 27 -1 55 -9 17 -23 30 -31 30 -10 0 -12 8 -7 33 4 17 9 35 11 38 15 26
283 41 326 18 25 -14 67 -60 68 -75 0 -6 -46 -32 -102 -58 -203 -94 -330 -199
-378 -311 -30 -70 -23 -122 33 -236 38 -80 72 -135 179 -293 7 -10 22 -31 33
-45 11 -14 36 -48 54 -76 19 -27 36 -52 37 -54 2 -2 34 25 71 60 38 35 102 87
144 115 70 48 196 114 218 114 5 0 11 4 13 8 2 4 32 18 68 31 36 12 74 26 85
31 105 44 506 130 609 130 19 0 42 3 50 6 15 6 14 10 -3 38 -10 17 -29 49 -41
71 -163 294 -427 521 -765 655 -151 60 -290 88 -475 94 -69 3 -159 1 -200 -4z
m-240 -394 c0 -2 -9 -6 -20 -9 -11 -3 -18 -1 -14 4 5 9 34 13 34 5z m-52 -39
c-2 -20 -6 -22 -32 -19 -29 5 -29 5 -8 13 12 5 22 13 22 19 0 5 4 10 10 10 5
0 9 -10 8 -23z m-68 -57 c0 -5 -7 -7 -15 -4 -8 4 -15 2 -15 -3 0 -4 -9 -14
-21 -21 -19 -12 -19 -11 -9 7 18 34 60 49 60 21z m-100 -95 c0 -3 -7 -17 -16
-30 -9 -13 -13 -28 -10 -34 7 -11 -3 -41 -14 -41 -7 0 3 63 15 98 4 12 25 18
25 7z"/>
<path d="M1710 3740 c-8 -5 -10 -10 -5 -10 6 0 17 5 25 10 8 5 11 10 5 10 -5
0 -17 -5 -25 -10z"/>
<path d="M2990 3716 c0 -2 7 -7 16 -10 8 -3 12 -2 9 4 -6 10 -25 14 -25 6z"/>
<path d="M1586 3674 c-352 -212 -606 -564 -703 -974 -31 -132 -42 -379 -23
-526 39 -316 182 -617 401 -848 136 -143 258 -233 447 -330 59 -30 33 -8 -35
30 -176 97 -294 191 -416 329 -332 376 -459 887 -341 1375 14 58 32 119 40
137 8 17 14 37 14 45 0 22 107 224 167 315 99 151 349 385 485 454 36 18 47
29 31 29 -5 0 -35 -16 -67 -36z"/>
<path d="M3070 3675 c25 -14 61 -35 80 -46 68 -41 176 -128 250 -201 148 -146
225 -252 305 -422 100 -212 136 -361 142 -596 2 -94 0 -184 -6 -210 -8 -36 -9
-20 -5 76 7 165 -17 388 -55 504 -5 14 -15 45 -22 70 -7 25 -19 58 -26 73 -12
23 -17 26 -29 16 -8 -6 -14 -25 -14 -41 0 -16 -6 -30 -12 -32 -7 -2 -38 -9
-68 -16 -83 -18 -300 -80 -324 -92 -49 -25 -56 -27 -72 -21 -13 5 -15 3 -9 -7
5 -8 4 -11 -3 -6 -6 3 -31 -5 -56 -19 -25 -14 -47 -25 -49 -25 -14 0 21 50 37
54 16 4 17 8 7 20 -8 9 -11 26 -7 41 4 14 5 25 3 25 -2 0 -37 -9 -78 -19 -153
-40 -367 -142 -474 -225 -111 -86 -145 -133 -111 -153 23 -13 188 -259 230
-342 154 -302 42 -533 -340 -701 -158 -69 -293 -98 -416 -87 -61 5 -57 19 4
16 32 -1 61 0 65 4 3 4 0 7 -8 7 -35 1 18 19 72 25 58 7 149 53 149 75 0 5 6
10 14 10 19 0 82 66 99 103 6 15 15 27 18 27 3 0 15 19 27 43 29 57 45 156 36
225 -8 69 -76 279 -111 345 -15 26 -23 50 -20 53 4 4 9 0 13 -9 5 -14 8 -14
27 3 11 11 22 28 23 37 7 44 16 63 29 63 10 0 15 10 15 29 0 31 24 59 35 41 8
-12 25 -13 25 -1 0 5 -14 23 -30 41 -25 27 -27 32 -10 27 11 -3 20 -1 20 4 0
5 -4 9 -9 9 -16 0 -58 43 -65 68 -4 12 -14 22 -22 22 -8 0 -14 7 -14 16 0 9
-5 12 -12 8 -7 -4 -8 -3 -4 4 7 12 -22 61 -36 62 -20 1 -46 40 -42 62 5 21 4
22 -9 6 -8 -10 -17 -15 -20 -11 -4 3 -2 12 3 18 7 8 7 21 1 38 -12 32 -36 49
-26 18 4 -12 2 -21 -4 -21 -6 0 -11 5 -11 10 0 7 -6 7 -20 0 -24 -13 -26 -30
-5 -30 8 0 15 -7 15 -17 0 -9 -3 -13 -6 -10 -4 4 -20 -5 -36 -18 -16 -14 -33
-25 -38 -25 -4 0 -6 -9 -3 -20 4 -16 2 -19 -11 -14 -12 5 -16 0 -16 -21 0 -27
0 -27 -40 16 -21 24 -39 38 -40 32 0 -7 5 -13 10 -13 6 0 10 -6 10 -13 0 -8 9
-24 20 -37 11 -13 20 -26 20 -30 0 -4 38 -63 84 -131 161 -238 204 -332 210
-454 2 -44 2 -70 -1 -58 -6 31 -33 18 -33 -17 0 -15 -9 -39 -20 -53 -11 -14
-20 -31 -20 -39 0 -10 -3 -9 -10 2 -9 13 -12 12 -25 -5 -19 -24 -38 -93 -31
-111 3 -8 0 -11 -10 -7 -7 3 -14 9 -14 14 0 6 -8 5 -19 -1 -13 -6 -22 -26 -27
-55 -4 -28 -11 -45 -20 -45 -8 0 -14 -5 -14 -11 0 -5 5 -7 10 -4 6 3 10 1 10
-4 0 -6 -9 -11 -20 -11 -12 0 -20 -7 -20 -17 0 -10 -14 -26 -30 -35 -17 -9
-30 -23 -30 -31 0 -12 -64 -50 -74 -44 -2 1 -12 -5 -22 -14 -23 -19 -175 -69
-212 -69 -6 0 -19 14 -27 30 -9 17 -20 28 -25 25 -12 -7 -23 12 -24 43 -1 20
-8 28 -34 34 -20 5 -39 5 -45 0 -12 -9 -97 -36 -202 -65 -27 -8 -51 -20 -53
-28 -6 -34 129 -159 288 -266 331 -222 746 -296 1137 -203 97 24 275 86 310
108 13 8 30 11 39 8 33 -13 196 91 313 199 125 114 254 268 305 364 158 292
223 575 197 863 -11 114 -40 274 -60 328 -103 274 -188 412 -366 598 -104 109
-317 262 -400 287 -11 3 0 -5 25 -20z m-984 -1097 c4 -7 3 -8 -4 -4 -7 4 -12
2 -12 -4 0 -6 -5 -8 -11 -4 -8 4 -7 9 2 15 18 11 17 11 25 -3z m1741 -475
c-12 -99 -79 -299 -145 -428 -73 -146 -270 -381 -395 -472 -29 -21 -58 -43
-65 -50 -23 -23 -152 -96 -158 -90 -3 3 22 23 56 44 134 81 315 236 352 299
l16 29 -101 0 c-88 1 -252 18 -296 31 -20 6 -8 15 25 17 25 2 29 7 29 32 0 22
4 30 17 29 10 -1 15 2 12 7 -3 5 -17 9 -31 9 -18 0 -24 4 -19 15 4 11 -6 21
-32 33 -20 9 -49 28 -64 42 -88 83 -108 103 -108 111 0 5 42 -20 93 -55 118
-81 160 -102 255 -126 88 -23 243 -27 304 -8 33 10 45 22 79 78 67 114 150
341 166 458 3 23 8 42 11 42 3 0 2 -21 -1 -47z m-722 -523 c3 -5 2 -10 -4 -10
-5 0 -13 5 -16 10 -3 6 -2 10 4 10 5 0 13 -4 16 -10z m-1109 -195 c-39 -20
-67 -21 -40 0 10 8 30 14 44 15 25 0 25 0 -4 -15z m-81 -25 c-3 -5 -14 -10
-23 -10 -15 0 -15 2 -2 10 20 13 33 13 25 0z m-55 -19 c0 -17 -18 -21 -24 -6
-3 9 0 15 9 15 8 0 15 -4 15 -9z m-27 -33 c3 -10 8 -10 21 1 15 13 37 9 24 -4
-11 -12 -61 -9 -65 3 -3 6 0 12 5 12 6 0 12 -6 15 -12z"/>
<path d="M1610 3560 c-20 -12 -9 -21 18 -13 12 3 19 9 16 14 -7 11 -15 11 -34
-1z"/>
<path d="M1545 3527 c-32 -19 -100 -71 -103 -79 -2 -5 -8 -8 -13 -8 -22 0
-124 -120 -152 -180 -26 -54 -31 -76 -29 -128 1 -35 6 -71 11 -80 9 -15 10
-14 11 5 0 12 5 25 10 28 6 4 10 -7 10 -24 0 -17 5 -31 10 -31 6 0 10 14 10
31 0 23 5 32 21 36 17 5 20 11 15 34 -3 16 -1 29 4 29 19 0 50 40 50 65 0 18
9 31 28 42 25 15 38 34 80 121 10 19 24 32 35 32 10 0 21 9 24 20 3 11 12 20
20 20 13 0 13 3 3 15 -10 12 -9 16 3 21 9 3 20 3 25 0 6 -3 12 5 14 19 6 29 0
31 -28 10 -25 -19 -38 -19 -30 0 6 18 -2 18 -29 2z"/>
<path d="M1222 3282 c-44 -53 -129 -186 -172 -272 -45 -88 -108 -287 -125
-390 -18 -112 -20 -376 -4 -464 55 -298 143 -496 315 -714 2 -4 215 68 259 87
89 38 258 125 293 150 62 46 82 84 82 158 0 83 -38 203 -106 331 -70 131 -102
181 -239 373 -117 163 -207 307 -220 349 -4 14 -11 27 -15 30 -4 3 -19 40 -34
84 -34 100 -37 198 -8 274 11 28 19 52 17 52 -2 0 -21 -22 -43 -48z"/>
<path d="M2250 2690 c0 -5 5 -10 10 -10 6 0 10 5 10 10 0 6 -4 10 -10 10 -5 0
-10 -4 -10 -10z"/>
<path d="M3010 1030 c-19 -11 -31 -19 -27 -20 11 0 67 29 67 35 0 7 -1 7 -40
-15z"/>
<path d="M619 3190 c-77 -76 22 -186 124 -139 61 28 60 115 -3 152 -44 26 -87
22 -121 -13z"/>
<path d="M575 2542 c-11 -10 -37 -29 -57 -43 -38 -26 -38 -38 0 -58 59 -31
128 49 89 103 -12 16 -13 16 -32 -2z"/>
<path d="M4122 2242 c-29 -23 -47 -84 -32 -113 28 -51 127 -59 170 -14 23 25
27 46 17 87 -14 52 -108 76 -155 40z"/>
<path d="M2226 555 c-42 -42 -4 -145 46 -126 28 10 49 92 31 119 -14 23 -57
27 -77 7z"/>
<path d="M2420 555 c-17 -21 -18 -99 -1 -119 16 -19 52 -21 69 -4 15 15 16 92
2 119 -13 23 -52 25 -70 4z"/>
</g>
</svg>
